<?xml version="1.0"?>
<svg xmlns="http://www.w3.org/2000/svg" xmlns:xlink="http://www.w3.org/1999/xlink" xmlns:svgjs="http://svgjs.com/svgjs" version="1.1" width="512" height="512" x="0" y="0" viewBox="0 0 509.867 509.867" style="enable-background:new 0 0 512 512" xml:space="preserve" class=""><g>
<path xmlns="http://www.w3.org/2000/svg" style="" d="M272,6.4c-8.533-8.533-23.467-8.533-32,0C220.8,27.733,62.933,219.733,62.933,317.867  c0,106.667,85.333,192,192,192s192-85.333,192-192C446.933,219.733,289.067,27.733,272,6.4z" fill="#ccf2fe" data-original="#ccf2fe" class=""/>
<path xmlns="http://www.w3.org/2000/svg" style="" d="M423.467,234.667c-32,8.533-36.267,40.533-76.8,40.533c-46.933,0-46.933-42.667-91.733-42.667  S208,275.2,163.2,275.2c-40.533,0-44.8-32-76.8-40.533c-12.8,25.6-21.333,53.333-23.467,83.2c0,6.4,0,14.933,2.133,21.333  c2.133,0,4.267,0,6.4,0c46.933,0,46.933,42.667,91.733,42.667s46.933-42.667,91.733-42.667s46.933,42.667,91.733,42.667  S393.6,339.2,438.4,339.2c2.133,0,4.267,0,6.4,0c0-6.4,2.133-14.933,2.133-21.333C444.8,288,436.267,260.267,423.467,234.667z" fill="#b3ecfd" data-original="#b3ecfd"/>
<linearGradient xmlns="http://www.w3.org/2000/svg" id="SVGID_1_" gradientUnits="userSpaceOnUse" x1="-40.9231" y1="621.7793" x2="-30.6013" y2="632.1001" gradientTransform="matrix(21.3333 0 0 -21.3333 1018.022 13744.0225)"><stop stop-opacity="1" stop-color="#69efff" offset="0"/><stop stop-opacity="1" stop-color="#ffc0f9" offset="1"/></linearGradient>
<path xmlns="http://www.w3.org/2000/svg" style="fill:url(#SVGID_1_);" d="M346.667,381.867c-46.933,0-46.933-42.667-91.733-42.667S208,381.867,163.2,381.867  S116.267,339.2,71.467,339.2c-2.133,0-4.267,0-6.4,0c12.8,104.533,106.667,181.333,213.333,168.533  C368,497.067,436.267,426.667,446.933,339.2c-2.133,0-4.267,0-6.4,0C393.6,339.2,393.6,381.867,346.667,381.867z" fill=""/>
<g xmlns="http://www.w3.org/2000/svg">
</g>
<g xmlns="http://www.w3.org/2000/svg">
</g>
<g xmlns="http://www.w3.org/2000/svg">
</g>
<g xmlns="http://www.w3.org/2000/svg">
</g>
<g xmlns="http://www.w3.org/2000/svg">
</g>
<g xmlns="http://www.w3.org/2000/svg">
</g>
<g xmlns="http://www.w3.org/2000/svg">
</g>
<g xmlns="http://www.w3.org/2000/svg">
</g>
<g xmlns="http://www.w3.org/2000/svg">
</g>
<g xmlns="http://www.w3.org/2000/svg">
</g>
<g xmlns="http://www.w3.org/2000/svg">
</g>
<g xmlns="http://www.w3.org/2000/svg">
</g>
<g xmlns="http://www.w3.org/2000/svg">
</g>
<g xmlns="http://www.w3.org/2000/svg">
</g>
<g xmlns="http://www.w3.org/2000/svg">
</g>
</g></svg>
